<svg width="32" height="32" viewBox="0 0 32 32" fill="none" xmlns="http://www.w3.org/2000/svg">
<path d="M23.3334 8.6665H23.3468M9.33342 2.6665H22.6667C26.3486 2.6665 29.3334 5.65127 29.3334 9.33317V22.6665C29.3334 26.3484 26.3486 29.3332 22.6667 29.3332H9.33342C5.65152 29.3332 2.66675 26.3484 2.66675 22.6665V9.33317C2.66675 5.65127 5.65152 2.6665 9.33342 2.6665ZM21.3334 15.1598C21.498 16.2695 21.3084 17.4028 20.7918 18.3985C20.2751 19.3943 19.4576 20.2017 18.4556 20.7061C17.4536 21.2104 16.318 21.386 15.2105 21.2077C14.1029 21.0295 13.0798 20.5066 12.2865 19.7134C11.4933 18.9202 10.9704 17.897 10.7922 16.7895C10.614 15.6819 10.7895 14.5464 11.2938 13.5443C11.7982 12.5423 12.6057 11.7248 13.6014 11.2082C14.5971 10.6915 15.7304 10.502 16.8401 10.6665C17.972 10.8344 19.0199 11.3618 19.829 12.1709C20.6381 12.98 21.1656 14.0279 21.3334 15.1598Z" stroke="#F28705" stroke-width="3" stroke-linecap="round" stroke-linejoin="round"/>
</svg>
